<svg width="25" height="20" viewBox="0 0 25 20" fill="none" xmlns="http://www.w3.org/2000/svg">
<path d="M22.0094 0.522333L2.53532 0.0599134C2.21565 0.0523229 1.91446 0.126398 1.64054 0.253778L11.9616 11.4347L14.3889 9.13674C14.3889 9.13674 14.3891 9.1365 14.3892 9.13641C14.3892 9.13632 14.3894 9.13622 14.3894 9.13622L22.8943 0.758647C22.6267 0.618313 22.3292 0.529925 22.0094 0.522333Z" fill="#E8E8E8"/>
<path d="M23.849 1.79313L15.8455 9.67688L23.4656 17.9318C23.6017 17.6552 23.6877 17.3479 23.6955 17.0177L24.0351 2.71676C24.0429 2.38674 23.9719 2.07579 23.849 1.79313Z" fill="#E8E8E8"/>
<path d="M0.637704 1.24164C0.501528 1.51824 0.415599 1.82551 0.407758 2.15572L0.0681774 16.4566C0.060341 16.7867 0.131495 17.0977 0.254299 17.3804L8.25783 9.49662L0.637704 1.24164Z" fill="#E8E8E8"/>
<path d="M14.8427 10.6648L12.415 12.963C12.2765 13.0995 12.0977 13.1651 11.9206 13.1609C11.7436 13.1567 11.5681 13.0826 11.4362 12.9398L9.21265 10.531L1.20898 18.4148C1.47659 18.5551 1.77411 18.6435 2.09386 18.6511L21.568 19.1135C21.8876 19.1211 22.1888 19.047 22.4627 18.9197L14.8427 10.6648Z" fill="#E8E8E8"/>
</svg>
